<svg version="1.1" xmlns="http://www.w3.org/2000/svg" style="display: block;" viewBox="0 0 2048 2048" width="1024" height="1024" preserveAspectRatio="none">
<path transform="translate(0,0)" fill="rgb(0,0,0)" d="M 484.056 204.07 L 688.726 204.001 C 722.947 204.004 768.311 201.525 800.689 207.08 C 838.036 213.488 868.195 252.367 869.305 289.298 C 870.544 307.659 870.063 325.878 870.063 344.143 L 870.051 440.482 L 870.025 754.415 L 870.017 1746 C 869.869 1775.51 865.164 1801.68 843.315 1823.41 C 831.117 1835.56 815.653 1843.92 798.801 1847.46 C 781.777 1850.99 760.977 1850.2 743.374 1850.19 L 683.096 1850.11 C 618.888 1850.04 553.817 1850.78 489.712 1850.15 L 484.047 1850.07 L 484.036 1995.88 L 1623.93 1996 L 1624.06 1940.4 C 1612.03 1940.17 1600 1940.04 1587.97 1940.01 C 1587.94 1937.76 1587.85 1931.3 1588.37 1929.4 C 1594.11 1908.21 1622.01 1871.12 1624.1 1851.2 C 1625.53 1850.4 1626.61 1849.83 1628.04 1849.11 C 1625.76 1847.18 1604.14 1846.38 1598.87 1845.75 C 1583.77 1843.9 1568.8 1841.09 1554.06 1837.32 C 1414.78 1801.52 1313.35 1681.58 1301.17 1538.29 C 1293.66 1448.2 1322.51 1358.85 1381.29 1290.16 C 1439.14 1222.8 1521.11 1180.81 1609.59 1173.23 C 1614.06 1172.87 1618.54 1172.56 1623.02 1172.31 C 1623.4 1139.53 1587.32 1113.25 1588.01 1080.09 L 1622.94 1080.05 L 1622.97 880.017 C 1528.44 874.672 1445.03 837.741 1381.53 766.515 C 1322.04 699.846 1291.47 612.28 1296.54 523.075 C 1301.57 433.618 1341.92 349.819 1408.71 290.096 C 1467.67 237.562 1543.08 207.2 1622 204.225 C 1631.09 204.143 1640.98 203.855 1649.99 204.313 C 1730.38 210.007 1796.83 234.568 1858.35 287.762 C 1925.78 346.595 1967.08 429.794 1973.18 519.069 C 1979.25 608.514 1949.48 696.698 1890.44 764.168 C 1828.63 835.369 1744.21 873.526 1651.01 880.142 L 1650.98 1079.9 L 1684.04 1080.03 C 1684.51 1108.75 1658.15 1131.31 1651.5 1158.46 C 1650.49 1162.61 1650.9 1167.57 1650.96 1171.83 C 1725.01 1178.28 1782.81 1194.61 1843.26 1240.28 C 1915.06 1294.26 1962.37 1374.62 1974.73 1463.59 C 1987.08 1552.24 1963.64 1642.16 1909.59 1713.49 C 1859.15 1780.02 1786.03 1825.72 1704.12 1841.89 C 1690.57 1844.48 1676.88 1846.32 1663.13 1847.38 C 1656.78 1847.89 1651.21 1847.48 1644.97 1848.35 L 1644.39 1849.62 C 1646.78 1849.89 1649.17 1850.18 1651.55 1850.49 C 1652.87 1853.29 1652.13 1857.48 1651.94 1860.56 C 1651.1 1873.59 1680.22 1911.74 1683.67 1929.41 C 1684.33 1932.81 1684.1 1936.61 1684.04 1940.06 C 1673.4 1940.2 1662.75 1940.23 1652.1 1940.15 C 1652.05 1949 1651.41 1989.58 1652.57 1995.34 L 1655.4 1996.52 C 1657.17 2000.62 1656.84 2018.87 1655.95 2023.49 C 1652.95 2025.7 1642.77 2025.97 1638.77 2025.97 L 671.204 2024.13 L 507.51 2024.13 C 489.642 2024.21 474.509 2026.45 456.043 2026.02 L 456.071 1850.17 L 245.144 1850.15 L 190.12 1850.15 C 175.106 1850.14 157.539 1850.66 142.903 1847.93 C 120.492 1843.35 100.994 1831.31 87.5958 1812.93 C 67.9978 1786.05 69.8933 1755.87 69.9849 1724.38 C 70.0245 1710.75 69.9818 1696.9 69.9849 1683.17 L 70.0317 1530.68 L 70.0222 1047.62 L 69.9845 537.537 L 69.9812 375.58 C 69.9837 347.214 69.3116 318.01 70.6179 289.859 C 72.3077 253.447 96.3229 220.316 131.329 209.29 C 143.102 205.581 151.775 204.887 163.887 203.945 L 484.056 204.07 z"/>
<path transform="translate(0,0)" fill="rgb(255,255,255)" d="M 161.77 252.394 C 182.385 250.583 225.918 252.006 248.381 252.007 L 423.827 252.003 C 425.338 261.834 426.575 268.182 432.525 276.805 C 439.174 286.481 449.42 293.092 460.976 295.164 C 472.755 297.311 484.901 294.616 494.666 287.689 C 507.93 278.266 511.734 266.893 514.259 252.004 L 694.453 252.032 C 723.808 252.02 754.332 250.868 783.463 252.911 C 830.987 256.243 822.025 315.053 822.03 348.43 L 822.006 454.585 L 822.022 812.144 L 822.031 1437.28 L 822.022 1644.36 C 822.019 1680.87 822.338 1717.43 821.79 1753.93 C 821.303 1786.4 806.654 1798.79 776.002 1801.82 C 746.035 1802.51 714.081 1801.97 683.999 1801.98 L 514.184 1802.03 C 513.285 1789.53 511.665 1780.36 503.208 1770.14 C 495.552 1760.9 484.465 1755.17 472.498 1754.27 C 460.689 1753.34 448.996 1757.15 440.001 1764.86 C 427.878 1775.27 424.947 1787.05 423.782 1801.99 L 245.087 1801.96 C 216.016 1801.97 185.773 1803.14 156.889 1801.13 C 109.729 1797.83 117.992 1742.5 117.983 1709.49 L 117.999 1608.21 L 118.001 1258.66 L 117.978 621.028 L 117.976 410.46 C 117.979 373.079 117.593 335.609 118.294 298.242 C 118.847 268.782 133.509 255.368 161.77 252.394 z"/>
<path transform="translate(0,0)" fill="rgb(255,255,255)" d="M 1677.94 255.034 C 1722.61 262.699 1760.72 276.522 1798.63 302.201 C 1862.47 345.437 1906.47 412.311 1920.92 488.05 C 1935.2 563.561 1918.89 641.651 1875.59 705.141 C 1828.21 774.453 1761.82 813.145 1680.29 828.585 C 1679.05 819.645 1677.79 813.217 1672.83 805.267 C 1666.49 795.031 1656.29 787.786 1644.54 785.176 C 1632.79 782.609 1620.51 784.848 1610.42 791.393 C 1598.64 799.184 1592.98 810.266 1590.46 823.733 C 1590.12 825.707 1590.08 825.587 1589.36 827.478 C 1585.79 828.792 1577.07 826.17 1573.07 825.3 C 1535.99 817.312 1500.85 802.129 1469.62 780.61 C 1406.23 737.024 1362.77 670.029 1348.81 594.38 C 1334.83 518.106 1352 439.413 1396.47 375.888 C 1442.19 310.57 1509.79 269.457 1587.92 255.884 C 1592.1 274.351 1602.48 289.469 1621.71 294.445 C 1633.8 297.592 1646.65 295.532 1657.15 288.765 C 1669.92 280.497 1675.03 269.237 1677.94 255.034 z"/>
<path transform="translate(0,0)" fill="rgb(255,255,255)" d="M 1682.33 1223.09 C 1727.21 1230.88 1765.28 1244.76 1803.32 1270.68 C 1866.96 1314.02 1910.73 1380.9 1925.01 1456.56 C 1939.24 1532.54 1922.52 1611.06 1878.55 1674.65 C 1829.83 1745.06 1763.17 1782.01 1680.24 1797.3 C 1678.98 1789.4 1677.58 1783.34 1673.47 1776.34 C 1667.47 1765.96 1657.53 1758.43 1645.9 1755.47 C 1634.41 1752.58 1622.24 1754.36 1612.06 1760.44 C 1598.92 1768.33 1593.5 1779.55 1590.24 1793.72 C 1590 1794.65 1590.23 1793.99 1588.99 1795.38 C 1580.83 1794.98 1571.44 1792.02 1563.49 1789.96 C 1531.42 1781.66 1501.73 1767.79 1474.34 1749.01 C 1410.42 1705.46 1366.63 1638.1 1352.75 1562.01 C 1339 1486.41 1355.82 1408.44 1399.53 1345.24 C 1445.9 1278.19 1512.38 1238.58 1591.77 1223.84 C 1593.31 1233.74 1594.53 1240.14 1600.53 1248.82 C 1607.19 1258.46 1617.43 1265.06 1628.96 1267.15 C 1640.84 1269.33 1653.09 1266.59 1662.91 1259.57 C 1676.35 1249.9 1679.98 1238.24 1682.33 1223.09 z"/>
<path transform="translate(0,0)" fill="rgb(255,255,255)" d="M 1598.02 1090.06 L 1673.98 1090.11 L 1648.45 1139.7 C 1644.46 1147.7 1640.31 1155.63 1636.03 1163.49 C 1623.09 1139.99 1610.33 1114.06 1598.02 1090.06 z"/>
<path transform="translate(0,0)" fill="rgb(255,255,255)" d="M 1635.68 1856.84 C 1639.36 1861.16 1669.35 1920.93 1673.93 1929.88 L 1637.5 1929.98 L 1598.12 1929.92 L 1635.68 1856.84 z"/>
<path transform="translate(0,0)" fill="rgb(255,255,255)" d="M 1628.48 220.909 C 1644.56 218.403 1659.63 229.428 1662.11 245.518 C 1664.59 261.608 1653.54 276.656 1637.44 279.109 C 1621.39 281.556 1606.38 270.538 1603.91 254.485 C 1601.43 238.433 1612.43 223.409 1628.48 220.909 z"/>
<path transform="translate(0,0)" fill="rgb(255,255,255)" d="M 1630.46 1770.91 C 1646.53 1768.4 1661.59 1779.39 1664.1 1795.47 C 1666.6 1811.54 1655.6 1826.6 1639.52 1829.09 C 1623.46 1831.59 1608.41 1820.59 1605.91 1804.53 C 1603.41 1788.47 1614.4 1773.42 1630.46 1770.91 z"/>
<path transform="translate(0,0)" fill="rgb(255,255,255)" d="M 1630.46 800.904 C 1646.54 798.393 1661.61 809.407 1664.1 825.492 C 1666.59 841.577 1655.55 856.63 1639.47 859.097 C 1623.41 861.559 1608.39 850.55 1605.91 834.496 C 1603.42 818.442 1614.41 803.41 1630.46 800.904 z"/>
<path transform="translate(0,0)" fill="rgb(255,255,255)" d="M 464.49 1770.9 C 480.569 1768.41 495.623 1779.43 498.102 1795.51 C 500.58 1811.59 489.543 1826.64 473.459 1829.1 C 457.397 1831.56 442.379 1820.54 439.904 1804.48 C 437.429 1788.42 448.433 1773.39 464.49 1770.9 z"/>
<path transform="translate(0,0)" fill="rgb(255,255,255)" d="M 1632.51 1192.91 C 1648.58 1190.42 1663.63 1201.45 1666.1 1217.52 C 1668.58 1233.6 1657.55 1248.64 1641.47 1251.1 C 1625.4 1253.57 1610.38 1242.55 1607.91 1226.48 C 1605.43 1210.42 1616.44 1195.39 1632.51 1192.91 z"/>
<path transform="translate(0,0)" fill="rgb(255,255,255)" d="M 464.552 220.902 C 480.626 218.441 495.652 229.48 498.107 245.556 C 500.563 261.632 489.518 276.653 473.442 279.104 C 457.373 281.553 442.36 270.515 439.905 254.446 C 437.451 238.378 448.484 223.362 464.552 220.902 z"/>
<path transform="translate(0,0)" fill="rgb(0,0,0)" d="M 456.077 26.0479 C 473.147 25.6664 485.945 27.8752 501.608 27.9526 C 539.403 28.1396 577.371 27.9935 615.178 27.9918 L 1079.04 27.991 L 1501.59 27.9954 C 1536.16 27.9957 1570.94 28.192 1605.5 27.9179 C 1621.34 27.7922 1632.97 25.6075 1649.98 26.0542 L 1650.02 105.934 L 1682.03 106.029 C 1682.39 135.407 1654.77 157.19 1650.21 185.414 C 1649.36 190.662 1649.9 196.575 1650 201.896 L 1622.03 201.94 C 1623.02 167.473 1585.12 140.186 1586.11 106.078 L 1621.96 106.023 L 1622.05 56.2791 L 484.067 56.1446 L 483.985 150.483 C 483.974 164.854 483.262 188.344 484.435 202.163 C 477.332 201.822 462.839 201.564 456.022 202.512 C 456.022 144.568 455.026 83.7329 456.077 26.0479 z"/>
<path transform="translate(0,0)" fill="rgb(255,255,255)" d="M 1595.99 116.076 C 1621.31 115.964 1646.63 115.978 1671.95 116.119 L 1646.57 165.444 C 1642.55 173.528 1638.37 181.533 1634.03 189.453 C 1621.93 168.788 1607.28 138.009 1595.99 116.076 z"/>
<path transform="translate(0,0)" fill="rgb(0,0,0)" fill-opacity="0.0666667" d="M 456.022 202.512 C 462.839 201.564 477.332 201.822 484.435 202.163 L 484.056 204.07 L 163.887 203.945 C 170.33 202.133 210.103 202.781 219.964 202.782 L 386.944 202.793 C 399.586 202.784 446.793 203.861 456.022 202.512 z"/>
<path transform="translate(0,0)" fill="rgb(0,0,0)" fill-opacity="0.0470588" d="M 1622.03 201.94 L 1650 201.896 L 1649.99 204.313 C 1640.98 203.855 1631.09 204.143 1622 204.225 L 1622.03 201.94 z"/>
</svg>