<svg version="1.1" xmlns="http://www.w3.org/2000/svg" style="display: block;" viewBox="0 0 2048 2048" width="2048" height="2048" preserveAspectRatio="none">
<path transform="translate(0,0)" fill="rgb(0,0,0)" d="M 1315.49 702.5 C 1346.04 702.221 1378.57 703.006 1409.45 703.014 L 1674.89 703.001 L 1795.74 702.973 C 1812.43 702.964 1830.31 703.337 1846.88 702.973 C 1883.49 702.168 1905.78 720.606 1906 758.109 C 1906.24 798.508 1906.03 839.341 1905.99 879.933 L 1905.98 1113.21 L 1906.06 1237.01 C 1906.11 1285.56 1917.46 1348.22 1844.2 1345.06 C 1836.54 1344.73 1826.17 1345.08 1818.3 1345.07 L 1744.96 1344.99 L 1507.63 1344.98 L 734.5 1345 L 359.793 1345.01 L 246.324 1345.05 C 220.109 1345.06 180.911 1349.74 159.888 1333.52 C 139.242 1317.6 141.802 1289.2 141.939 1265.99 L 142.025 1215.5 L 142.017 1039.84 L 141.961 846.206 L 141.936 785.512 C 141.937 773.094 141.746 760.723 142.552 748.314 C 143.915 726.943 161.676 706.032 183.758 704.113 C 209.916 701.839 238.75 703.015 265.348 703.023 L 429.547 703.019 L 1038.91 702.979 L 1224.28 702.979 L 1281.22 703.081 C 1292.02 703.1 1304.91 703.675 1315.49 702.5 z"/>
<path transform="translate(0,0)" fill="rgb(254,254,254)" d="M 750.004 727.002 L 1315.51 727.003 L 1315.51 1321 L 750.002 1321 L 750.004 727.002 z"/>
<path transform="translate(0,0)" fill="rgb(254,254,254)" d="M 190.035 727.18 C 208.393 726.301 233.135 726.993 251.925 726.992 L 369.207 726.992 L 725.997 727.002 L 726 1321 L 703.5 1321 L 362.556 1321 L 251.523 1321.05 C 232.124 1321.05 212.684 1321.22 193.316 1320.81 C 183.942 1320.84 170.142 1315.55 168.304 1304.94 C 164.376 1282.24 165.948 1255.48 165.95 1232.44 L 165.976 1118.29 L 165.964 883.413 C 165.939 842.396 165.826 801.372 166.01 760.359 C 166.096 741.038 169.825 731.336 190.035 727.18 z"/>
<path transform="translate(0,0)" fill="rgb(254,254,254)" d="M 1332.49 727.006 L 1682.31 727.005 L 1795.71 726.936 C 1815.59 726.926 1835.78 726.562 1855.62 727.264 C 1871.71 728.151 1880.68 736.483 1881.43 752.446 C 1882.59 776.909 1882.02 801.562 1882.02 825.989 L 1882 978.465 L 1881.98 1190.19 L 1882.07 1255.05 C 1882.12 1273.09 1885.54 1299.45 1874.41 1313.81 C 1870.17 1317.17 1864.28 1320.29 1858.88 1320.54 C 1840.68 1321.39 1821.52 1321.04 1803.3 1321.03 L 1692.67 1320.98 L 1332.49 1321 L 1332.49 727.006 z"/>
</svg>